PathFileType	4	(X/Y/Z)	Patient5_TMGait_0pt45_1_left_02.trc.trc
DataRate	CameraRate	NumFrames	NumMarkers	Units	OrigDataRate	OrigDataStartFrame	OrigNumFrames
59.322033898305	59.322033898305	6	32	mm	59.322033898305	36	       141
Frame#	Time	R.ASIS			L.ASIS			Chest			R.Shoulder			Neck			L.Shoulder			L.Elbow			L.Wrist			R.Elbow			R.Wrist			L.Thigh.Superior			L.Thigh.Lateral			L.Thigh.Inferior			L.Patella			L.Shank.Superior			L.Shank.Lateral			L.Shank.Inferior			L.Heel			L.Midfoot.Lateral			L.Midfoot.Superior			L.Toe			R.Thigh.Superior			R.Thigh.Lateral			R.Thigh.Inferior			R.Patella			R.Shank.Superior			R.Shank.Lateral			R.Shank.Inferior			R.Heel			R.Midfoot.Lateral			R.Midfoot.Superior			R.Toe			
		X1	Y1	Z1	X2	Y2	Z2	X3	Y3	Z3	X4	Y4	Z4	X5	Y5	Z5	X6	Y6	Z6	X7	Y7	Z7	X8	Y8	Z8	X9	Y9	Z9	X10	Y10	Z10	X11	Y11	Z11	X12	Y12	Z12	X13	Y13	Z13	X14	Y14	Z14	X15	Y15	Z15	X16	Y16	Z16	X17	Y17	Z17	X18	Y18	Z18	X19	Y19	Z19	X20	Y20	Z20	X21	Y21	Z21	X22	Y22	Z22	X23	Y23	Z23	X24	Y24	Z24	X25	Y25	Z25	X26	Y26	Z26	X27	Y27	Z27	X28	Y28	Z28	X29	Y29	Z29	X30	Y30	Z30	X31	Y31	Z31	X32	Y32	Z32	

36	2.290000000000	943.729305744616	963.467649387092	606.958299700668	969.763958917591	955.961727576503	369.905526484257	1042.287073448346	1423.866779342258	500.296831428760	938.209076169296	1490.686797486051	663.823005075713	920.909357915847	1550.914848822449	478.906141279516	988.373547288365	1491.003115554341	299.887282240898	889.217364244187	1177.438223858903	173.227623977467	996.527381321939	911.250454367590	167.331903111426	835.409878985202	1172.792900474735	795.587505327069	1028.983555620835	960.196229398105	754.263048806518	1028.500399385357	757.607370881106	362.006869714288	981.608556529239	674.354713416675	312.993599996132	1057.170185495111	635.198124709676	389.817024904693	1086.110296829620	520.535250611655	399.636614456757	1051.942066569637	409.735723321467	408.681094078871	1010.955578401969	337.473742922101	320.002929713752	1037.025736769401	284.020562124753	409.444296958731	934.969872598473	49.303042083885	388.698765086347	1027.845554462758	28.143499153966	333.150211901441	1120.962208921622	89.201255391917	385.580944263160	1228.370525519840	45.649061797782	394.261680256972	914.281127931904	725.479964278591	615.096421795732	806.456668940922	665.643052165697	657.966636776960	877.565867788036	598.433040667668	588.115851213141	853.480831294025	500.798800787993	611.622616234594	787.785845434388	414.154901800188	567.573783409505	697.624320609042	365.888521779678	644.018963812043	737.560586092772	284.194297245644	563.362515341883	563.062502880948	79.504296820060	524.569738383742	639.340540859698	37.414482256525	593.749006608799	750.451964093552	90.280518606136	571.518628338995	846.769390778545	41.923311327012	564.197628651660	
37	2.306857142857	943.601482016906	964.850969876567	603.548096450683	972.729890236639	956.779021769429	367.093824939982	1044.821154594514	1424.693563643378	498.678594837852	939.037601271116	1491.881302041687	660.771093541676	924.183045592453	1552.098120237431	475.755813187496	993.905544781715	1492.038455334609	297.616699701871	895.405611570532	1178.863390535687	169.562679238511	1002.529594847854	912.635506601010	163.823558385775	834.138693481356	1174.579399468980	792.081014926731	1026.686063435464	960.901596154826	751.666668549284	1030.400473390622	757.700989470430	359.410762379163	982.872165629393	674.480542299753	310.687489385257	1057.757657050065	635.165682114257	387.978852891523	1085.410147404499	519.699845372477	398.578044638042	1049.559254322289	409.144463229467	407.612369437446	1008.116834399502	337.168571971984	319.045280492690	1032.575626491297	283.709859071365	408.680058085444	927.454639683815	49.261011676795	388.521089223249	1020.286894231561	28.134557302029	332.888478938302	1113.398993931977	89.191412938387	385.372925795058	1220.905064415334	45.592363761226	393.950228097323	916.082890558746	727.112363394781	613.434817928451	808.447209862638	667.037594103450	656.274459392362	881.108100492572	599.526770021422	587.998311733878	857.222420320635	501.247941638760	612.303404472695	789.512621398656	414.140507255281	567.920814416542	697.753626248401	368.061267922920	643.906887224069	736.288890549966	285.401854140493	563.822722069866	557.472920656501	85.143038721757	525.008771013088	632.609411872657	40.466282180509	593.835675755097	745.020758923452	90.729696275088	572.337500309995	839.518492597264	41.732734988845	564.221578331159	
38	2.323714285714	943.332654782649	966.333256680682	600.101434666658	975.318093802920	957.393575801681	364.300540499540	1047.165587377788	1425.432215518679	497.019909534770	939.631006583800	1492.997307678592	657.593724492653	927.384575326676	1553.260005776768	472.509284083111	999.499061822276	1493.104221742259	295.364800785968	901.766237179958	1180.390438222998	165.669054741167	1008.840190808785	914.164195855829	160.493912359565	833.218140373642	1176.230160487003	788.667090608471	1024.905227007188	961.721013932916	748.939370723913	1031.496240223726	757.478579639298	357.073161457135	983.349818550767	674.462967194994	308.335775485677	1057.306002840217	634.780266104092	386.228085110815	1083.597866728701	518.772875617020	397.405671847312	1046.300336723439	408.502890661379	406.400713215151	1004.463700535755	336.701223364856	317.987137457361	1027.580493023732	283.348446323751	407.819081875968	919.888543994172	49.250732304830	388.304356126162	1012.721076189689	28.071355334646	332.662177065819	1105.815911284069	89.105387511802	385.261585819139	1213.400684110069	45.509184449904	393.867465082758	918.499020111769	728.956963147623	612.294315621478	811.371217709747	668.294631999882	655.101390835862	885.809952244649	600.642859806086	588.534846182297	862.362468728032	501.561349462219	613.747436847719	792.374946717106	414.068981701504	569.019345149603	699.044654261352	370.242342404418	644.585661750764	735.845211899641	286.702957305452	564.877520967163	552.289240274172	91.649089515437	525.940166643852	626.140183488393	43.995157134115	594.188866569234	739.928977436884	91.309974907064	573.468471467238	832.368687155502	41.594085913296	564.306502958930	
39	2.340571428571	942.940288744593	967.904164852305	596.679525005479	977.495271323456	957.872938539500	361.517421959301	1049.283137696520	1426.073592800934	495.283231170099	940.008670098991	1494.064015560695	654.293733907120	930.454367511577	1554.394308196548	469.158829497846	1005.054721159133	1494.144002387182	293.118999684447	908.328123541734	1181.943184017748	161.537701620294	1015.483827446751	915.759422192913	157.372941642817	832.485552641000	1177.747174522882	785.199752737547	1023.594881422912	962.683170990800	746.171680476037	1031.912386434280	757.079716496488	354.987275876082	983.183560009186	674.381818679240	305.997293098642	1056.019856696152	634.172701026035	384.581713259222	1080.881537162581	517.823325514191	396.185145188207	1042.342702554678	407.856709847238	405.119162652716	1000.209210168591	336.142847472190	316.859889603761	1022.152651655438	282.965694147084	406.912336765453	912.296511933427	49.262511284702	388.056754923018	1005.154785978382	27.979085989156	332.453718936767	1098.218609785912	88.971251980757	385.206525853631	1205.871031379295	45.397988333246	393.915705152315	921.496028591503	731.016222053563	611.687802498542	815.202999080471	669.424073925613	654.498565129629	891.609131184828	601.827571713476	589.754555730307	868.812378948955	501.815699582825	615.952757128383	796.363234550752	414.048927017468	570.869063249267	701.530184722747	372.514364137678	646.092028344779	736.263022102798	288.196598548602	566.541007473705	547.642935654461	99.154478417458	527.414220347524	620.011140019000	48.137550703086	594.856115935307	735.238587761189	92.120684968015	574.937316529155	825.395213651867	41.504251295417	564.499441697083	
40	2.357428571429	942.441229120400	969.559112794898	593.336156452805	979.251921753680	958.285689347857	358.733809468341	1051.134884043885	1426.616582952828	493.449238078402	940.194587853371	1495.108695596700	650.893642525955	933.325543317517	1555.492616271628	465.718555893158	1010.449196194969	1495.106936349192	290.877912834901	915.075825345544	1183.441153749328	157.201242891138	1022.472611950089	917.357250290869	154.475608584475	831.779114752554	1179.136496880952	781.558939919602	1022.688695724793	963.813737922020	743.442406928926	1031.787584763031	756.604651931790	353.080775523104	982.495729853908	674.280914403466	303.710019652995	1054.119107994318	633.452183303286	383.016302947497	1077.499271358972	516.897805681970	394.957466896895	1037.886390723263	407.238288420727	403.834292041459	995.553595080318	335.548033943123	315.709059684705	1016.417684321242	282.586394813523	406.008223249669	904.697429306312	49.284558513845	387.798067700219	997.589577933886	27.883359132901	332.254619005844	1090.608047804254	88.822079148920	385.175072864206	1198.327044336144	45.269655213360	394.001446660755	925.010481623400	733.308244044133	611.585752430004	819.852428203716	670.483709841346	654.478458467543	898.369562041789	603.163179581793	591.642457795248	876.399525725874	502.135611018300	618.863158590840	801.413196188598	414.213018022341	573.414300996992	705.174788828199	374.994581903779	648.391276859349	737.544238497013	290.007641409271	568.776512932310	543.686587318754	107.788753652720	529.431809869049	614.303595657371	53.057480391002	595.855173516045	731.007033072731	93.287876745055	576.740459592433	818.676251746173	41.453088450462	564.847030420167	
41	2.374285714286	941.847390407103	971.294839036505	590.115305858790	980.602725971992	958.684072833635	355.947235656843	1052.679961389460	1427.072939971247	491.520007146208	940.190590151646	1496.150627285232	647.429229539040	935.926873549479	1556.544460119730	462.220138357921	1015.547214905687	1495.957936812175	288.648551449095	921.942746717445	1184.810374940228	152.733802063152	1029.794558170811	918.916036800471	151.799567433932	830.962378700213	1180.398936318363	777.671647456584	1022.113483381665	965.129737444433	740.806090475189	1031.250080653754	756.109531950921	351.249496249847	981.382387043339	674.173458832013	301.484121986186	1051.805882841599	632.695190343259	381.478751757073	1073.682270060580	516.018115503577	393.727826478024	1033.122995876853	406.663042861230	402.588362421865	990.657560365025	334.952196446446	314.572482540724	1010.496463401204	282.226574286984	405.138638017960	897.102665707660	49.305994587640	387.549785025077	990.024383098606	27.802473035204	332.063222125468	1082.985536975039	88.684832593185	385.145817513133	1190.776443506104	45.134429861926	394.056300140649	928.957975085517	735.861248083550	611.925614827170	825.178606938456	671.567512415591	655.014041518102	905.896993730589	604.748606025506	594.137459539940	884.890141612388	502.666070085879	622.377340877028	807.409365608963	414.696264193992	576.558840064317	709.873467526717	377.811698636564	651.385000007297	739.656141112869	292.264790656905	571.506088098046	540.571938833326	117.653242714388	531.948402755246	609.089621765061	58.917178782568	597.167884207398	727.272039124811	94.947621107286	578.844859095947	812.271171037301	41.423522621748	565.381542475029	
